<svg xmlns="http://www.w3.org/2000/svg" width="116.684" height="30.141" viewBox="0 0 311.156 80.375">
  <defs>
    <style>
      .cls-1 {
        fill: #0f3460;
        fill-rule: evenodd;
      }
    </style>
  </defs>
  <path id="Estore" class="cls-1" d="M347.267,382.753a7.656,7.656,0,0,0-.457-1.922,2.474,2.474,0,0,0-.763-1.069,1.672,1.672,0,0,0-1.007-.335H316.6V357.149h23.865a1.773,1.773,0,0,0,1.007-.305,2.24,2.24,0,0,0,.763-1.007,7.112,7.112,0,0,0,.458-1.862,28.017,28.017,0,0,0,0-5.829,7.175,7.175,0,0,0-.458-1.892,2.479,2.479,0,0,0-.763-1.037,1.664,1.664,0,0,0-1.007-.336H316.6V325.594h28.2a1.537,1.537,0,0,0,.977-0.336,2.6,2.6,0,0,0,.732-1.068,7.606,7.606,0,0,0,.458-1.923,23.417,23.417,0,0,0,.153-2.9,24.644,24.644,0,0,0-.153-3.021,8.118,8.118,0,0,0-.458-1.953,2.356,2.356,0,0,0-.732-1.068,1.641,1.641,0,0,0-.977-0.305H305.367a4.989,4.989,0,0,0-3.388,1.19,4.879,4.879,0,0,0-1.373,3.875v68.848a4.882,4.882,0,0,0,1.373,3.876,4.994,4.994,0,0,0,3.388,1.19H345.04a1.666,1.666,0,0,0,1.007-.336,2.464,2.464,0,0,0,.763-1.068,7.656,7.656,0,0,0,.457-1.922A28.719,28.719,0,0,0,347.267,382.753Zm50.568-14.648a15.231,15.231,0,0,0-3.052-4.669,18.477,18.477,0,0,0-4.3-3.3,44.7,44.7,0,0,0-4.883-2.35q-2.472-1.008-4.882-1.862a34.249,34.249,0,0,1-4.3-1.831,10.6,10.6,0,0,1-3.052-2.258,4.552,4.552,0,0,1-1.16-3.174,5.438,5.438,0,0,1,.488-2.289,5.149,5.149,0,0,1,1.465-1.861,6.847,6.847,0,0,1,2.5-1.221,13.47,13.47,0,0,1,3.6-.427,19.355,19.355,0,0,1,5.218.641,34.273,34.273,0,0,1,4.029,1.373,31.057,31.057,0,0,1,2.9,1.373,4.165,4.165,0,0,0,1.709.641,1.659,1.659,0,0,0,.854-0.214,1.461,1.461,0,0,0,.58-0.824,7.024,7.024,0,0,0,.305-1.648q0.091-1.037.092-2.685,0-1.4-.092-2.35c-0.061-.63-0.132-1.16-0.213-1.587a3.877,3.877,0,0,0-.367-1.1,3.042,3.042,0,0,0-.823-0.916,11.037,11.037,0,0,0-1.923-1.1,20.876,20.876,0,0,0-3.3-1.19,36.414,36.414,0,0,0-4.364-.915,33.107,33.107,0,0,0-4.974-.367,31.08,31.08,0,0,0-9.247,1.282,20.826,20.826,0,0,0-6.989,3.6,15.593,15.593,0,0,0-4.394,5.585,16.721,16.721,0,0,0-1.526,7.172,17.3,17.3,0,0,0,1.129,6.591,14.956,14.956,0,0,0,2.991,4.7,18.329,18.329,0,0,0,4.211,3.3,43.829,43.829,0,0,0,4.822,2.38q2.472,1.04,4.822,1.892a34.668,34.668,0,0,1,4.211,1.832,10.058,10.058,0,0,1,2.991,2.288,4.666,4.666,0,0,1,1.129,3.144,6.2,6.2,0,0,1-.61,2.807,5.169,5.169,0,0,1-1.8,2.014,9.266,9.266,0,0,1-2.807,1.221,14.5,14.5,0,0,1-3.693.427,20.128,20.128,0,0,1-5.89-.793,34.526,34.526,0,0,1-4.547-1.709q-1.954-.915-3.266-1.679a4.559,4.559,0,0,0-1.983-.762,1.8,1.8,0,0,0-.916.213,1.6,1.6,0,0,0-.61.855,7.215,7.215,0,0,0-.366,1.709,25.987,25.987,0,0,0-.122,2.838,16.858,16.858,0,0,0,.366,4.059,4.25,4.25,0,0,0,1.037,2.014,9.029,9.029,0,0,0,2.137,1.373,25.9,25.9,0,0,0,3.662,1.434,35.215,35.215,0,0,0,4.974,1.16,35.827,35.827,0,0,0,5.829.458,35.408,35.408,0,0,0,9.4-1.19,22.156,22.156,0,0,0,7.508-3.571,16.288,16.288,0,0,0,4.913-5.92,18.318,18.318,0,0,0,1.74-8.179A16.345,16.345,0,0,0,397.835,368.105ZM441.2,381.746a13.322,13.322,0,0,0-.335-1.739,1.44,1.44,0,0,0-.519-0.855,1.293,1.293,0,0,0-.7-0.214,2.515,2.515,0,0,0-.946.214q-0.519.215-1.282,0.488a13.988,13.988,0,0,1-1.739.489,10.3,10.3,0,0,1-2.2.213q-3.6,0-5-2.227t-1.4-6.684V345.857h11.9a1.945,1.945,0,0,0,1.77-1.434,13.385,13.385,0,0,0,.61-4.791,24.631,24.631,0,0,0-.153-2.991,7.238,7.238,0,0,0-.457-1.922,2.255,2.255,0,0,0-.763-1.008,1.885,1.885,0,0,0-1.068-.305H427.071V321.26a1.787,1.787,0,0,0-.366-1.1,2.741,2.741,0,0,0-1.221-.824,9.2,9.2,0,0,0-2.35-.489q-1.5-.151-3.754-0.152-2.2,0-3.692.152a9.678,9.678,0,0,0-2.381.489,2.508,2.508,0,0,0-1.22.824,1.894,1.894,0,0,0-.336,1.1v12.146h-6.47a1.883,1.883,0,0,0-1.068.305,2.248,2.248,0,0,0-.763,1.008,7.2,7.2,0,0,0-.458,1.922,24.655,24.655,0,0,0-.152,2.991,13.362,13.362,0,0,0,.61,4.791,1.942,1.942,0,0,0,1.77,1.434h6.531V373.75a31.959,31.959,0,0,0,1.038,8.667,14.854,14.854,0,0,0,3.234,6.073,13.163,13.163,0,0,0,5.555,3.571,24.342,24.342,0,0,0,7.934,1.16,31.26,31.26,0,0,0,3.388-.183,26.269,26.269,0,0,0,3.112-.519,15.133,15.133,0,0,0,2.5-.794,4.823,4.823,0,0,0,1.617-1.037,4.437,4.437,0,0,0,.885-2.014,19.26,19.26,0,0,0,.336-4.12A21.051,21.051,0,0,0,441.2,381.746Zm63.385-32.471a24.287,24.287,0,0,0-5.218-9.46,22.206,22.206,0,0,0-8.881-5.829A36.653,36.653,0,0,0,477.791,332a34.8,34.8,0,0,0-13.092,2.259,24.912,24.912,0,0,0-9.308,6.378,26.8,26.8,0,0,0-5.585,9.888,41.26,41.26,0,0,0-1.861,12.725,44.012,44.012,0,0,0,1.709,12.818,24.041,24.041,0,0,0,5.249,9.46,22.718,22.718,0,0,0,8.911,5.86,35.953,35.953,0,0,0,12.634,2.014,35.06,35.06,0,0,0,13.123-2.258,24.694,24.694,0,0,0,9.338-6.409,26.783,26.783,0,0,0,5.554-9.888,41.59,41.59,0,0,0,1.831-12.695A44.294,44.294,0,0,0,504.585,349.275Zm-14.892,21.21a16.739,16.739,0,0,1-2.442,5.768,10.816,10.816,0,0,1-4.211,3.632A13.636,13.636,0,0,1,477,381.136a13.309,13.309,0,0,1-6.348-1.374,10.317,10.317,0,0,1-4.059-3.875,18.362,18.362,0,0,1-2.167-5.89,38.162,38.162,0,0,1-.671-7.416,32.81,32.81,0,0,1,.824-7.721,17.512,17.512,0,0,1,2.472-5.8,10.731,10.731,0,0,1,4.211-3.662,13.486,13.486,0,0,1,5.982-1.252,13.048,13.048,0,0,1,6.378,1.4,10.864,10.864,0,0,1,4.059,3.906,17.475,17.475,0,0,1,2.166,5.89,39.909,39.909,0,0,1,.641,7.416A34.053,34.053,0,0,1,489.693,370.485Zm63.66-33.417a15.037,15.037,0,0,0-.184-1.922,5.4,5.4,0,0,0-.274-1.007,1.9,1.9,0,0,0-.489-0.672,3.4,3.4,0,0,0-1.068-.58,12.621,12.621,0,0,0-1.709-.488,16.64,16.64,0,0,0-1.892-.305Q546.822,332,546.028,332a13.169,13.169,0,0,0-3.418.458,11.331,11.331,0,0,0-3.418,1.618,22.79,22.79,0,0,0-3.6,3.143,43.54,43.54,0,0,0-4.028,5.035v-6.775a1.887,1.887,0,0,0-.3-1.068,2.251,2.251,0,0,0-1.007-.763,7.375,7.375,0,0,0-1.984-.457,28.368,28.368,0,0,0-3.235-.153,26.871,26.871,0,0,0-3.143.153,8.8,8.8,0,0,0-2.045.457,2.237,2.237,0,0,0-1.1.763,1.88,1.88,0,0,0-.306,1.068v54.444a1.655,1.655,0,0,0,.367,1.068,2.689,2.689,0,0,0,1.251.763,10.853,10.853,0,0,0,2.35.458q1.464,0.151,3.723.152t3.723-.152a10.866,10.866,0,0,0,2.35-.458,2.694,2.694,0,0,0,1.251-.763,1.659,1.659,0,0,0,.366-1.068V355.989a47.345,47.345,0,0,1,3.2-4.516,19.663,19.663,0,0,1,2.868-2.93,10.846,10.846,0,0,1,2.655-1.617,6.788,6.788,0,0,1,2.564-.519,8.891,8.891,0,0,1,2.014.213q0.915,0.214,1.678.458t1.374,0.458a3.342,3.342,0,0,0,1.1.214,1.6,1.6,0,0,0,1.007-.306,2.144,2.144,0,0,0,.641-1.1,11.239,11.239,0,0,0,.367-2.2q0.122-1.4.122-3.6T553.353,337.068Zm58.41,21.607a36.808,36.808,0,0,0-1.465-10.62,22.533,22.533,0,0,0-4.577-8.454,21.085,21.085,0,0,0-7.965-5.584A30.448,30.448,0,0,0,586.067,332a30.136,30.136,0,0,0-11.627,2.137,23.6,23.6,0,0,0-8.758,6.195,27.43,27.43,0,0,0-5.494,9.887,42.31,42.31,0,0,0-1.892,13.092,44.113,44.113,0,0,0,1.8,13.306,23.1,23.1,0,0,0,5.463,9.4,22.655,22.655,0,0,0,9.124,5.554A40.085,40.085,0,0,0,587.41,393.4a52.384,52.384,0,0,0,7.569-.519,61.838,61.838,0,0,0,6.286-1.221,34.265,34.265,0,0,0,4.517-1.434,7.42,7.42,0,0,0,2.166-1.16,4.207,4.207,0,0,0,.641-0.885,3.909,3.909,0,0,0,.367-1.129,14.518,14.518,0,0,0,.183-1.617q0.06-.947.061-2.289,0-1.525-.092-2.533a5.092,5.092,0,0,0-.336-1.556,1.59,1.59,0,0,0-.61-0.763,1.8,1.8,0,0,0-.915-0.214,6.867,6.867,0,0,0-2.381.58q-1.464.581-3.692,1.282a46.908,46.908,0,0,1-5.28,1.281,38.249,38.249,0,0,1-7.08.58,19.855,19.855,0,0,1-6.8-1.037,11.424,11.424,0,0,1-4.639-3.022,12.047,12.047,0,0,1-2.625-4.821,22.642,22.642,0,0,1-.824-6.318h33.142a4.485,4.485,0,0,0,3.449-1.342,5.928,5.928,0,0,0,1.251-4.151v-2.441Zm-37.842-1.953a21.865,21.865,0,0,1,.885-5.4,13.5,13.5,0,0,1,2.2-4.394,10.428,10.428,0,0,1,3.6-2.961,11.137,11.137,0,0,1,5.1-1.1q5.8,0,8.576,3.692t2.594,10.163h-22.95Z" transform="translate(-300.594 -313.031)"/>
</svg>
